<svg id="Layer_1" data-name="Layer 1" xmlns="http://www.w3.org/2000/svg" viewBox="0 0 812.56 793.89"><defs><style>.cls-1{fill:#d7eff3;}.cls-2{fill:#2c093d;}.cls-3{fill:#40aaa8;}.cls-4{fill:#67c7c4;}.cls-5{fill:none;stroke:#2b0d3c;stroke-miterlimit:10;stroke-width:6px;}.cls-6{font-size:23.98px;}.cls-6,.cls-7,.cls-9{fill:#231f20;font-family:MyriadPro-Regular, Myriad Pro;}.cls-7{font-size:36px;}.cls-8{letter-spacing:0em;}.cls-9{font-size:18px;}.cls-10{letter-spacing:0.01em;}.cls-11{letter-spacing:0em;}.cls-12{letter-spacing:0em;}.cls-13{letter-spacing:0em;}.cls-14{letter-spacing:-0.08em;}.cls-15{letter-spacing:-0.02em;}.cls-16{letter-spacing:0em;}.cls-17{letter-spacing:0.01em;}.cls-18{letter-spacing:-0.01em;}.cls-19{letter-spacing:-0.01em;}</style></defs><title>resume_temp_3</title><path class="cls-1" d="M51.38,129.76H400.57a0,0,0,0,1,0,0V706.66a31,31,0,0,1-31,31H51.38a31,31,0,0,1-31-31V160.73a31,31,0,0,1,31-31Z" transform="translate(621.59 867.52) rotate(179.92)"/><rect class="cls-2" y="227.2" width="42.48" height="42.48"/><rect class="cls-3" y="295.35" width="42.48" height="42.48"/><rect class="cls-4" y="363.49" width="42.48" height="42.48"/><rect class="cls-1" y="426.32" width="42.48" height="42.48"/><path class="cls-3" d="M611.45-.42,6,.41A6.58,6.58,0,0,0-.53,7l.08,56.26c0,27,21.68,48.94,48.39,49l323.87.26c24.15-2.53,47.74,21.63,42.5,54.35l4.76,542.44c5.43,33.62,28.79,48.89,56.37,45l137-.19Z" transform="translate(200.03 0.42)"/><ellipse class="cls-1" cx="521.14" cy="68.15" rx="57.32" ry="57.54" transform="translate(199.93 1.13) rotate(-0.08)"/><path class="cls-4" d="M430.39,161.49h143.8a25.22,25.22,0,0,1,25.22,25.22v103.2a25.22,25.22,0,0,1-25.22,25.22H430.39a0,0,0,0,1,0,0V161.49a0,0,0,0,1,0,0Z" transform="translate(1230.15 476.34) rotate(179.92)"/><path class="cls-4" d="M430.65,355.53h143.8a25.22,25.22,0,0,1,25.22,25.22V484a25.22,25.22,0,0,1-25.22,25.22H430.65a0,0,0,0,1,0,0V355.53a0,0,0,0,1,0,0Z" transform="translate(1230.95 864.42) rotate(179.92)"/><path class="cls-4" d="M430.92,547.33h136.5a32.52,32.52,0,0,1,32.52,32.52v96.57a36.82,36.82,0,0,1-36.82,36.82H430.92a0,0,0,0,1,0,0V547.33a0,0,0,0,1,0,0Z" transform="translate(1231.76 1260.29) rotate(179.92)"/><line class="cls-5" x1="808.87" y1="528.55" x2="628.98" y2="528.79"/><line class="cls-5" x1="805" y1="336.75" x2="625.12" y2="336.99"/><rect class="cls-2" x="0.52" y="754.56" width="611.98" height="38.5" transform="translate(814.11 1547.62) rotate(179.92)"/><text class="cls-6" transform="translate(74.34 253.72) scale(1.2 1)">2c093d</text><text class="cls-6" transform="translate(69.91 320.98) scale(1.2 1)">40aaa8</text><text class="cls-6" transform="translate(65.49 390) scale(1.2 1)">67c7c4</text><text class="cls-6" transform="translate(65.49 455.49) scale(1.2 1)">d7eff3</text><text class="cls-7" transform="translate(231.25 40.21)">N<tspan class="cls-8" x="23.69" y="0">A</tspan><tspan x="45.58" y="0">ME</tspan></text><text class="cls-9" transform="translate(643.91 186.07)">INFO</text><text class="cls-9" transform="translate(643.91 377.67)">SKILLS</text><text class="cls-9" transform="translate(646.34 578.8) scale(0.9 1)">E<tspan class="cls-10" x="8.86" y="0">X</tspan><tspan class="cls-11" x="19.28" y="0">T</tspan><tspan class="cls-12" x="28.22" y="0">R</tspan><tspan x="38" y="0">A CURRICULAR</tspan></text><text class="cls-9" transform="translate(238.75 309.96)">WORK EXPERIENCE</text><text class="cls-9" transform="translate(238.75 490.49)">EDU<tspan class="cls-13" x="32.49" y="0">C</tspan><tspan class="cls-14" x="43" y="0">A</tspan><tspan x="52.63" y="0">TION</tspan></text><text class="cls-9" transform="translate(238.75 671.4)"><tspan class="cls-15">A</tspan><tspan class="cls-16" x="10.75" y="0">CHI</tspan><tspan class="cls-17" x="37.22" y="0">E</tspan><tspan x="46.24" y="0">VEMEN</tspan><tspan class="cls-18" x="100.31" y="0">T</tspan><tspan x="109.15" y="0">S</tspan></text><text class="cls-9" transform="translate(238.75 178.14)">ABOUT M<tspan class="cls-19" x="72.05" y="0">Y</tspan><tspan x="81.56" y="0">SELF</tspan></text></svg>