<svg id="Layer_1" data-name="Layer 1" xmlns="http://www.w3.org/2000/svg" viewBox="0 0 854.28 841.89"><defs><style>.cls-1{fill:#fcf8c7;}.cls-2{fill:#d6e3aa;}.cls-3{fill:#83b683;}.cls-21,.cls-4{font-size:48px;}.cls-4,.cls-6,.cls-7{fill:#231f20;}.cls-21,.cls-4,.cls-6,.cls-7{font-family:MyriadPro-Regular, Myriad Pro;}.cls-5{letter-spacing:0em;}.cls-6{font-size:24px;}.cls-7{font-size:36px;}.cls-8{letter-spacing:0em;}.cls-9{letter-spacing:0em;}.cls-10{letter-spacing:-0.01em;}.cls-11{letter-spacing:-0.01em;}.cls-12{letter-spacing:0em;}.cls-13{letter-spacing:-0.01em;}.cls-14{letter-spacing:0.01em;}.cls-15{letter-spacing:-0.01em;}.cls-16{letter-spacing:0em;}.cls-17{letter-spacing:0.01em;}.cls-18{letter-spacing:0em;}.cls-19{letter-spacing:0em;}.cls-20{letter-spacing:-0.08em;}.cls-22{letter-spacing:-0.01em;}.cls-23{letter-spacing:0em;}</style></defs><title>resume_temp_2</title><rect class="cls-1" y="231" width="41" height="49"/><rect class="cls-2" y="307" width="41" height="49"/><rect class="cls-3" y="396.44" width="41" height="49"/><rect class="cls-2" x="496" width="358.28" height="223"/><rect class="cls-3" x="259" width="237" height="223"/><rect class="cls-2" x="259" y="223" width="237" height="618.89"/><rect class="cls-1" x="496" y="223" width="358.28" height="618.89"/><text x="259"/><text class="cls-4" transform="translate(281 59) scale(0.9 1)">N<tspan class="cls-5" x="31.58" y="0">A</tspan><tspan x="60.77" y="0">ME</tspan></text><text class="cls-6" transform="translate(292 111.5) scale(0.9 1)">INFO</text><text x="259"/><text class="cls-7" transform="translate(530 59)">P<tspan class="cls-8" x="19.15" y="0">R</tspan><tspan class="cls-9" x="38.63" y="0">OFESSIONAL</tspan><tspan x="0" y="43.2">SUM</tspan><tspan class="cls-10" x="69.98" y="43.2">M</tspan><tspan x="98.57" y="43.2">A</tspan><tspan class="cls-11" x="120.6" y="43.2">R</tspan><tspan class="cls-12" x="139.57" y="43.2">Y</tspan></text><text class="cls-6" transform="translate(286 279)">SKILLS</text><text class="cls-6" transform="translate(517 267)">WORK EXPERIENCE</text><text class="cls-6" transform="translate(512 437)"><tspan class="cls-13">A</tspan><tspan x="14.33" y="0">CHI</tspan><tspan class="cls-14" x="49.63" y="0">E</tspan><tspan x="61.65" y="0">VMEN</tspan><tspan class="cls-15" x="121.94" y="0">T</tspan><tspan class="cls-16" x="133.73" y="0">S</tspan></text><text class="cls-6" transform="translate(271 485)">E<tspan class="cls-17" x="11.81" y="0">X</tspan><tspan x="25.7" y="0">T</tspan><tspan class="cls-18" x="37.63" y="0">R</tspan><tspan x="50.66" y="0">A CURRICULAR</tspan></text><text class="cls-6" transform="translate(517 603.44)">EDU<tspan class="cls-19" x="43.32" y="0">C</tspan><tspan class="cls-20" x="57.33" y="0">A</tspan><tspan x="70.17" y="0">TION</tspan></text><text class="cls-21" transform="translate(73 267)"><tspan class="cls-22">f</tspan><tspan class="cls-23" x="13.39" y="0">c</tspan><tspan x="35.04" y="0">f8c7</tspan></text><text class="cls-21" transform="translate(73 352)">d6e3aa</text><text class="cls-21" transform="translate(73 437)">83b683</text></svg>